<?xml version="1.0" encoding="UTF-8" standalone="no"?>
<svg
   id="svg"
   version="1.1"
   width="400"
   height="140.64837905236908"
   viewBox="0, 0, 400,140.64837905236908"
   sodipodi:docname="logo.svg"
   xml:space="preserve"
   inkscape:version="1.4 (e7c3feb100, 2024-10-09)"
   xmlns:inkscape="http://www.inkscape.org/namespaces/inkscape"
   xmlns:sodipodi="http://sodipodi.sourceforge.net/DTD/sodipodi-0.dtd"
   xmlns="http://www.w3.org/2000/svg"
   xmlns:svg="http://www.w3.org/2000/svg"><defs
     id="defs11"><clipPath
       clipPathUnits="userSpaceOnUse"
       id="clipPath1772"><g
         id="g1778"><g
           id="g1776"
           transform="matrix(1.0778343,0,0,1.0778343,-81.833939,-3.5498888)"><path
             id="path1774"
             d="M 79.702925,4.343078 H 204.08096 V 128.72111 H 79.702925 Z"
             style="stroke-width:0.155473" /></g></g></clipPath></defs><sodipodi:namedview
     id="namedview9"
     pagecolor="#ffffff"
     bordercolor="#000000"
     borderopacity="0.25"
     inkscape:showpageshadow="2"
     inkscape:pageopacity="0.0"
     inkscape:pagecheckerboard="0"
     inkscape:deskcolor="#d1d1d1"
     showgrid="false"
     inkscape:zoom="1.62625"
     inkscape:cx="84.857802"
     inkscape:cy="45.503459"
     inkscape:window-width="1920"
     inkscape:window-height="1009"
     inkscape:window-x="0"
     inkscape:window-y="0"
     inkscape:window-maximized="1"
     inkscape:current-layer="svg"
     shape-rendering="crispEdges"
     showguides="true"><sodipodi:guide
       position="428.21298,205.01103"
       orientation="1,0"
       id="guide32660"
       inkscape:locked="false" /></sodipodi:namedview><g
     aria-label="SOLUCIONES LOGÃSTICAS"
     id="text379"
     style="font-weight:bold;font-size:18px;line-height:0;font-family:'DejaVu Sans';-inkscape-font-specification:'DejaVu Sans Bold';letter-spacing:0.7px;stroke:#ffffff;stroke-width:0.268;stop-color:#000000;fill:#ffffff;fill-opacity:1;stroke-opacity:1"><path
       d="m 133.02618,113.58887 v 2.77734 q -1.08106,-0.4834 -2.10938,-0.72949 -1.02832,-0.24609 -1.94238,-0.24609 -1.21289,0 -1.79297,0.33398 -0.58008,0.33398 -0.58008,1.03711 0,0.52734 0.38672,0.82617 0.39551,0.29004 1.42383,0.50098 l 1.4414,0.29004 q 2.18848,0.43945 3.11133,1.33593 0.92285,0.89649 0.92285,2.54883 0,2.1709 -1.29199,3.23438 -1.2832,1.05468 -3.92871,1.05468 -1.24805,0 -2.50488,-0.2373 -1.25684,-0.2373 -2.51367,-0.70313 v -2.85644 q 1.25683,0.66797 2.42578,1.01074 1.17773,0.33399 2.26758,0.33399 1.10742,0 1.69629,-0.36914 0.58886,-0.36915 0.58886,-1.05469 0,-0.61524 -0.40429,-0.94922 -0.39551,-0.33399 -1.59082,-0.59766 l -1.30958,-0.29004 q -1.96875,-0.42187 -2.88281,-1.34472 -0.90527,-0.92285 -0.90527,-2.48731 0,-1.95996 1.26562,-3.01465 1.26563,-1.05468 3.63868,-1.05468 1.08105,0 2.22363,0.16699 1.14258,0.1582 2.36426,0.4834 z"
       id="path354"
       style="fill:#ffffff;fill-opacity:1;stroke:#ffffff;stroke-opacity:1" /><path
       d="m 143.55235,115.39063 q -1.54688,0 -2.39942,1.14257 -0.85253,1.14258 -0.85253,3.2168 0,2.06543 0.85253,3.20801 0.85254,1.14258 2.39942,1.14258 1.55566,0 2.4082,-1.14258 0.85254,-1.14258 0.85254,-3.20801 0,-2.07422 -0.85254,-3.2168 -0.85254,-1.14257 -2.4082,-1.14257 z m 0,-2.45215 q 3.16406,0 4.95703,1.81054 1.79297,1.81055 1.79297,5.00098 0,3.18164 -1.79297,4.99219 -1.79297,1.81054 -4.95703,1.81054 -3.15528,0 -4.95703,-1.81054 -1.79297,-1.81055 -1.79297,-4.99219 0,-3.19043 1.79297,-5.00098 1.80175,-1.81054 4.95703,-1.81054 z"
       id="path356"
       style="fill:#ffffff;fill-opacity:1;stroke:#ffffff;stroke-opacity:1" /><path
       d="m 153.55997,113.17578 h 3.38378 v 10.56445 h 5.94141 v 2.55762 h -9.32519 z"
       id="path358"
       style="fill:#ffffff;fill-opacity:1;stroke:#ffffff;stroke-opacity:1" /><path
       d="m 165.08809,113.17578 h 3.38379 v 7.86621 q 0,1.62598 0.52734,2.3291 0.53613,0.69434 1.74024,0.69434 1.21289,0 1.74023,-0.69434 0.53613,-0.70312 0.53613,-2.3291 v -7.86621 h 3.38379 v 7.86621 q 0,2.78614 -1.39746,4.14844 -1.39746,1.3623 -4.26269,1.3623 -2.85645,0 -4.25391,-1.3623 -1.39746,-1.3623 -1.39746,-4.14844 z"
       id="path360"
       style="fill:#ffffff;fill-opacity:1;stroke:#ffffff;stroke-opacity:1" /><path
       d="m 190.81055,125.57715 q -0.93164,0.4834 -1.94238,0.72949 -1.01074,0.24609 -2.10938,0.24609 -3.27832,0 -5.19433,-1.82812 -1.91602,-1.83691 -1.91602,-4.97461 0,-3.14648 1.91602,-4.97461 1.91601,-1.83691 5.19433,-1.83691 1.09864,0 2.10938,0.24609 1.01074,0.24609 1.94238,0.72949 v 2.71582 q -0.94043,-0.6416 -1.85449,-0.94043 -0.91406,-0.29882 -1.92481,-0.29882 -1.81054,0 -2.84765,1.16015 -1.03711,1.16016 -1.03711,3.19922 0,2.03027 1.03711,3.19043 1.03711,1.16016 2.84765,1.16016 1.01075,0 1.92481,-0.29883 0.91406,-0.29883 1.85449,-0.94043 z"
       id="path362"
       style="fill:#ffffff;fill-opacity:1;stroke:#ffffff;stroke-opacity:1" /><path
       d="m 194.31426,113.17578 h 3.38379 v 13.12207 h -3.38379 z"
       id="path364"
       style="fill:#ffffff;fill-opacity:1;stroke:#ffffff;stroke-opacity:1" /><path
       d="m 207.70567,115.39063 q -1.54688,0 -2.39942,1.14257 -0.85254,1.14258 -0.85254,3.2168 0,2.06543 0.85254,3.20801 0.85254,1.14258 2.39942,1.14258 1.55566,0 2.4082,-1.14258 0.85254,-1.14258 0.85254,-3.20801 0,-2.07422 -0.85254,-3.2168 -0.85254,-1.14257 -2.4082,-1.14257 z m 0,-2.45215 q 3.16406,0 4.95703,1.81054 1.79297,1.81055 1.79297,5.00098 0,3.18164 -1.79297,4.99219 -1.79297,1.81054 -4.95703,1.81054 -3.15528,0 -4.95704,-1.81054 -1.79296,-1.81055 -1.79296,-4.99219 0,-3.19043 1.79296,-5.00098 1.80176,-1.81054 4.95704,-1.81054 z"
       id="path366"
       style="fill:#ffffff;fill-opacity:1;stroke:#ffffff;stroke-opacity:1" /><path
       d="m 217.71329,113.17578 h 3.77929 l 4.77247,9 v -9 h 3.208 v 13.12207 h -3.77929 l -4.77246,-9 v 9 h -3.20801 z"
       id="path368"
       style="fill:#ffffff;fill-opacity:1;stroke:#ffffff;stroke-opacity:1" /><path
       d="m 233.47774,113.17578 h 9.13183 v 2.55762 h -5.74804 v 2.44336 h 5.40527 v 2.55762 h -5.40527 v 3.00585 h 5.9414 v 2.55762 h -9.32519 z"
       id="path370"
       style="fill:#ffffff;fill-opacity:1;stroke:#ffffff;stroke-opacity:1" /><path
       d="m 255.60548,113.58887 v 2.77734 q -1.08106,-0.4834 -2.10938,-0.72949 -1.02832,-0.24609 -1.94238,-0.24609 -1.21289,0 -1.79297,0.33398 -0.58008,0.33398 -0.58008,1.03711 0,0.52734 0.38672,0.82617 0.39551,0.29004 1.42383,0.50098 l 1.4414,0.29004 q 2.18848,0.43945 3.11133,1.33593 0.92285,0.89649 0.92285,2.54883 0,2.1709 -1.29199,3.23438 -1.2832,1.05468 -3.92871,1.05468 -1.24805,0 -2.50488,-0.2373 -1.25684,-0.2373 -2.51367,-0.70313 v -2.85644 q 1.25683,0.66797 2.42578,1.01074 1.17773,0.33399 2.26758,0.33399 1.10742,0 1.69629,-0.36914 0.58886,-0.36915 0.58886,-1.05469 0,-0.61524 -0.40429,-0.94922 -0.39551,-0.33399 -1.59082,-0.59766 l -1.30958,-0.29004 q -1.96875,-0.42187 -2.88281,-1.34472 -0.90527,-0.92285 -0.90527,-2.48731 0,-1.95996 1.26562,-3.01465 1.26563,-1.05468 3.63868,-1.05468 1.08105,0 2.22363,0.16699 1.14258,0.1582 2.36426,0.4834 z"
       id="path372"
       style="fill:#ffffff;fill-opacity:1;stroke:#ffffff;stroke-opacity:1" /><path
       d="m 267.1041,113.17578 h 3.38379 v 10.56445 h 5.94141 v 2.55762 h -9.3252 z"
       id="path374"
       style="fill:#ffffff;fill-opacity:1;stroke:#ffffff;stroke-opacity:1" /><path
       d="m 284.62637,115.39063 q -1.54688,0 -2.39942,1.14257 -0.85254,1.14258 -0.85254,3.2168 0,2.06543 0.85254,3.20801 0.85254,1.14258 2.39942,1.14258 1.55566,0 2.4082,-1.14258 0.85254,-1.14258 0.85254,-3.20801 0,-2.07422 -0.85254,-3.2168 -0.85254,-1.14257 -2.4082,-1.14257 z m 0,-2.45215 q 3.16406,0 4.95703,1.81054 1.79297,1.81055 1.79297,5.00098 0,3.18164 -1.79297,4.99219 -1.79297,1.81054 -4.95703,1.81054 -3.15528,0 -4.95704,-1.81054 -1.79296,-1.81055 -1.79296,-4.99219 0,-3.19043 1.79296,-5.00098 1.80176,-1.81054 4.95704,-1.81054 z"
       id="path376"
       style="fill:#ffffff;fill-opacity:1;stroke:#ffffff;stroke-opacity:1" /><path
       d="m 306.42892,125.32227 q -1.26563,0.61523 -2.62793,0.92285 -1.36231,0.30761 -2.8125,0.30761 -3.27832,0 -5.19434,-1.82812 -1.91601,-1.83691 -1.91601,-4.97461 0,-3.17285 1.95117,-4.99219 1.95117,-1.81933 5.34375,-1.81933 1.30957,0 2.50488,0.24609 1.2041,0.24609 2.26758,0.72949 v 2.71582 q -1.09863,-0.62402 -2.18848,-0.93164 -1.08105,-0.30761 -2.1709,-0.30761 -2.02148,0 -3.12011,1.13378 -1.08985,1.125 -1.08985,3.22559 0,2.08301 1.05469,3.2168 1.05469,1.13379 2.99707,1.13379 0.52734,0 0.97559,-0.0615 0.45703,-0.0703 0.81738,-0.21093 v -2.54883 h -2.06543 v -2.26758 h 5.27344 z"
       id="path378"
       style="fill:#ffffff;fill-opacity:1;stroke:#ffffff;stroke-opacity:1" /><path
       d="m 310.10841,113.17578 h 3.38379 v 13.12207 h -3.38379 z m 1.9248,-3.56836 h 2.48731 l -2.50489,2.32031 h -1.72265 z"
       id="path380"
       style="fill:#ffffff;fill-opacity:1;stroke:#ffffff;stroke-opacity:1" /><path
       d="m 326.6375,113.58887 v 2.77734 q -1.08105,-0.4834 -2.10937,-0.72949 -1.02832,-0.24609 -1.94238,-0.24609 -1.21289,0 -1.79297,0.33398 -0.58008,0.33398 -0.58008,1.03711 0,0.52734 0.38672,0.82617 0.39551,0.29004 1.42383,0.50098 l 1.4414,0.29004 q 2.18848,0.43945 3.11133,1.33593 0.92285,0.89649 0.92285,2.54883 0,2.1709 -1.29199,3.23438 -1.2832,1.05468 -3.92871,1.05468 -1.24805,0 -2.50488,-0.2373 -1.25684,-0.2373 -2.51368,-0.70313 v -2.85644 q 1.25684,0.66797 2.42579,1.01074 1.17773,0.33399 2.26757,0.33399 1.10743,0 1.69629,-0.36914 0.58887,-0.36915 0.58887,-1.05469 0,-0.61524 -0.4043,-0.94922 -0.3955,-0.33399 -1.59082,-0.59766 l -1.30957,-0.29004 q -1.96875,-0.42187 -2.88281,-1.34472 -0.90527,-0.92285 -0.90527,-2.48731 0,-1.95996 1.26562,-3.01465 1.26563,-1.05468 3.63867,-1.05468 1.08106,0 2.22364,0.16699 1.14257,0.1582 2.36425,0.4834 z"
       id="path382"
       style="fill:#ffffff;fill-opacity:1;stroke:#ffffff;stroke-opacity:1" /><path
       d="m 329.60508,113.17578 h 12.09375 v 2.55762 h -4.35059 v 10.56445 h -3.38379 V 115.7334 h -4.35937 z"
       id="path384"
       style="fill:#ffffff;fill-opacity:1;stroke:#ffffff;stroke-opacity:1" /><path
       d="m 344.14785,113.17578 h 3.38379 v 13.12207 h -3.38379 z"
       id="path386"
       style="fill:#ffffff;fill-opacity:1;stroke:#ffffff;stroke-opacity:1" /><path
       d="m 361.95138,125.57715 q -0.93164,0.4834 -1.94238,0.72949 -1.01075,0.24609 -2.10938,0.24609 -3.27832,0 -5.19434,-1.82812 -1.91601,-1.83691 -1.91601,-4.97461 0,-3.14648 1.91601,-4.97461 1.91602,-1.83691 5.19434,-1.83691 1.09863,0 2.10938,0.24609 1.01074,0.24609 1.94238,0.72949 v 2.71582 q -0.94043,-0.6416 -1.85449,-0.94043 -0.91407,-0.29882 -1.92481,-0.29882 -1.81055,0 -2.84766,1.16015 -1.0371,1.16016 -1.0371,3.19922 0,2.03027 1.0371,3.19043 1.03711,1.16016 2.84766,1.16016 1.01074,0 1.92481,-0.29883 0.91406,-0.29883 1.85449,-0.94043 z"
       id="path388"
       style="fill:#ffffff;fill-opacity:1;stroke:#ffffff;stroke-opacity:1" /><path
       d="m 373.41798,123.90723 h -5.29102 l -0.83496,2.39062 h -3.40137 l 4.86035,-13.12207 h 4.03418 l 4.86036,13.12207 h -3.40137 z m -4.44727,-2.43457 h 3.59473 l -1.79297,-5.22071 z"
       id="path390"
       style="fill:#ffffff;fill-opacity:1;stroke:#ffffff;stroke-opacity:1" /><path
       d="m 389.21758,113.58887 v 2.77734 q -1.08105,-0.4834 -2.10937,-0.72949 -1.02832,-0.24609 -1.94239,-0.24609 -1.21289,0 -1.79296,0.33398 -0.58008,0.33398 -0.58008,1.03711 0,0.52734 0.38672,0.82617 0.3955,0.29004 1.42382,0.50098 l 1.44141,0.29004 q 2.18848,0.43945 3.11133,1.33593 0.92285,0.89649 0.92285,2.54883 0,2.1709 -1.29199,3.23438 -1.2832,1.05468 -3.92871,1.05468 -1.24805,0 -2.50489,-0.2373 -1.25683,-0.2373 -2.51367,-0.70313 v -2.85644 q 1.25684,0.66797 2.42578,1.01074 1.17774,0.33399 2.26758,0.33399 1.10742,0 1.69629,-0.36914 0.58887,-0.36915 0.58887,-1.05469 0,-0.61524 -0.4043,-0.94922 -0.39551,-0.33399 -1.59082,-0.59766 l -1.30957,-0.29004 q -1.96875,-0.42187 -2.88281,-1.34472 -0.90527,-0.92285 -0.90527,-2.48731 0,-1.95996 1.26562,-3.01465 1.26563,-1.05468 3.63867,-1.05468 1.08106,0 2.22363,0.16699 1.14258,0.1582 2.36426,0.4834 z"
       id="path392"
       style="fill:#ffffff;fill-opacity:1;stroke:#ffffff;stroke-opacity:1" /></g><path
     id="path536"
     style="display:inline;fill:#c41e25;stroke-width:2.24539;stop-color:#000000;fill-opacity:1"
     d="M 133.214,68.094002 A 62.178001,62.178001 0 0 1 71.036003,130.272 62.178001,62.178001 0 0 1 8.8580017,68.094002 62.178001,62.178001 0 0 1 71.036003,5.9160004 62.178001,62.178001 0 0 1 133.214,68.094002 Z" /><g
     aria-label="UNTA "
     id="text14460"
     style="font-weight:bold;font-size:96px;line-height:0;-inkscape-font-specification:'sans-serif Bold';opacity:1;vector-effect:none;fill:#c41e25;stop-color:#000000;stop-opacity:1;fill-opacity:1"><path
       d="m 192.84451,80.955122 q 0,6.95304 -3.10068,12.590639 -3.00672,5.54364 -9.20808,8.832239 -6.1074,3.19464 -15.5034,3.19464 -13.34232,0 -20.29536,-6.765119 -6.95304,-6.859079 -6.95304,-18.040319 v -43.2216 h 14.18796 v 41.06052 q 0,8.26848 3.38256,11.65104 3.38256,3.382559 10.05372,3.382559 6.95304,0 10.05372,-3.664439 3.19464,-3.66444 3.19464,-11.46312 v -40.96656 h 14.18796 z"
       style="font-size:93.96px;font-family:OpenSymbol;-inkscape-font-specification:'OpenSymbol Bold';letter-spacing:0px;fill:#c41e25;fill-opacity:1"
       id="path9500" /><path
       d="M 268.76423,104.63304 H 250.72391 L 221.50235,53.894642 h -0.37584 q 0.18792,4.79196 0.37584,9.58392 0.28188,4.79196 0.4698,9.58392 v 31.570558 h -12.6846 V 37.545602 h 17.94636 l 29.1276,50.2686 h 0.28188 q -0.094,-4.698 -0.28188,-9.30204 -0.18792,-4.60404 -0.37584,-9.20808 v -31.75848 h 12.77856 z"
       style="font-size:93.96px;font-family:OpenSymbol;-inkscape-font-specification:'OpenSymbol Bold';letter-spacing:0px;fill:#c41e25;fill-opacity:1"
       id="path9502" /><path
       d="M 311.516,104.63304 H 297.32804 V 49.384562 H 279.0998 v -11.83896 h 50.64444 v 11.83896 H 311.516 Z"
       style="font-size:93.96px;font-family:OpenSymbol;-inkscape-font-specification:'OpenSymbol Bold';letter-spacing:0px;fill:#c41e25;fill-opacity:1"
       id="path9504" /><path
       d="m 374.56323,104.63304 -4.88592,-15.973198 h -24.4296 l -4.88592,15.973198 h -15.31548 l 23.67792,-67.369318 h 17.3826 l 23.77188,67.369318 z m -13.1544,-43.503478 q -0.4698,-1.59732 -1.22148,-4.04028 -0.75168,-2.44296 -1.50336,-4.97988 -0.75168,-2.53692 -1.22148,-4.41612 -0.4698,1.8792 -1.31544,4.698 -0.75168,2.72484 -1.50336,5.26176 -0.65772,2.44296 -1.03356,3.47652 l -4.79196,15.59736 h 17.47656 z"
       style="font-size:93.96px;font-family:OpenSymbol;-inkscape-font-specification:'OpenSymbol Bold';letter-spacing:0px;fill:#c41e25;fill-opacity:1"
       id="path9506" /></g><g
     transform="matrix(0.16757364,0,0,-0.16757364,54.457385,96.637563)"
     id="g24"
     clip-path="none"
     style="fill:#f8ffff;fill-opacity:1"><path
       id="path26"
       style="fill:#f8ffff;fill-opacity:1;fill-rule:nonzero;stroke:none"
       d="m 0,0 h -143.984 v 67.757 c 0,0 1.416,14.818 8.822,25.409 7.56,10.811 28.232,11.646 28.232,11.646 h 75.169 c 0,0 17.241,0.813 25.711,-11.892 C 0.192,83.556 0,75.168 0,75.168 Z m 15.881,137.632 c -23.292,20.115 -84.697,19.851 -84.697,19.851 0,0 -70.58,3.969 -95.284,-23.38 -2.487,-2.754 -4.76,-5.707 -6.83,-8.748 -11.936,-17.53 -17.52,-38.621 -17.52,-59.829 V -47.643 H 43.407 V 74.126 c 0,17.449 -4.712,34.777 -14.659,49.113 -3.456,4.982 -7.691,9.922 -12.867,14.393" /></g><g
     transform="matrix(0.16757364,0,0,-0.16757364,22.878096,34.543604)"
     id="g28"
     clip-path="none"
     style="fill:#fbffff;fill-opacity:1"><path
       id="path30"
       style="fill:#fbffff;fill-opacity:1;fill-rule:nonzero;stroke:none"
       d="m 0,0 v -120.693 c 0,0 6.353,-23.291 37.055,-45.524 35.44,-25.663 84.696,-24.35 84.696,-24.35 0,0 57.171,-3.177 88.932,28.585 24.373,24.373 25.409,41.289 25.409,41.289 V 0 h -40.231 v -90.086 c 0,-9.386 -3.65,-18.436 -10.342,-25.015 -3.606,-3.545 -8.005,-7.164 -12.95,-9.827 -13.763,-7.41 -31.761,-8.469 -31.761,-8.469 V 0 H 96.342 v -134.456 c 0,0 -18.68,2.292 -38.113,17.998 -0.064,0.052 -0.129,0.104 -0.193,0.158 -8.825,7.247 -13.57,18.361 -13.57,29.779 V 0 Z" /></g><g
     transform="matrix(0.16757364,0,0,-0.16757364,103.95518,67.364711)"
     id="g32"
     clip-path="none"
     style="fill:#ffffff;fill-opacity:1;stroke-width:1.00254431;stroke-dasharray:none"><path
       id="path353"
       style="fill:#ffffff;fill-opacity:1;fill-rule:nonzero;stroke:none;stroke-width:1.00254431;stroke-dasharray:none"
       d="M 0,0 H -125.986 V 119.634 H -1.059 c 0,0 51.877,-10.587 51.877,-59.817 C 50.818,10.587 0,0 0,0 m 154.571,68.11 c 0,0 -4.234,54.7 -40.23,88.578 -35.996,33.879 -95.284,39.173 -95.284,39.173 h -236.092 v -418.19 h 88.931 v 147.16 H 22.233 c 0,0 66.699,-4.234 102.695,44.466 35.996,48.701 29.643,98.813 29.643,98.813"
       inkscape:highlight-color="#ffffff" /></g></svg>
