<?xml version="1.0" encoding="UTF-8"?>
<svg version="1.1" xmlns="http://www.w3.org/2000/svg" viewBox="192 234 695 611">

<path d="M0 0 C1.80191956 0.78950084 3.59095793 1.60839229 5.375 2.4375 C6.37273437 2.88996094 7.37046875 3.34242188 8.3984375 3.80859375 C17.31960764 8.68046284 24.58396719 17.43365956 31.69921875 24.56640625 C32.5785054 25.44473618 33.45779205 26.3230661 34.36372375 27.22801208 C36.20603138 29.06964445 38.04709788 30.91251916 39.88696289 32.7565918 C42.68718845 35.56218785 45.49273172 38.36238656 48.29882812 41.16210938 C50.09927914 42.96322104 51.89942001 44.76464279 53.69921875 46.56640625 C54.52854416 47.39370743 55.35786957 48.22100861 56.21232605 49.07337952 C60.44731057 53.32530386 64.50309688 57.65847653 68.41758728 62.2063446 C70.70457229 64.7986285 73.14878905 67.15395035 75.65234375 69.5390625 C76.68761128 70.54218259 77.72209181 71.54611544 78.75585938 72.55078125 C80.33902222 74.0849803 81.92589691 75.61401886 83.52709961 77.12939453 C95.69176669 88.67201545 106.04960916 103.35836882 107.25447559 120.652668 C107.25652846 121.90546932 107.25858133 123.15827065 107.26069641 124.44903564 C107.26643473 125.5062704 107.26643473 125.5062704 107.27228898 126.58486342 C107.28252451 128.92286466 107.27864498 131.26061595 107.2746582 133.59863281 C107.27901001 135.28475672 107.28419472 136.97087866 107.29014587 138.65699768 C107.303499 143.22125611 107.30411849 147.78543155 107.30158257 152.3497057 C107.30051002 156.16893225 107.30540367 159.9881422 107.310188 163.80736518 C107.32127116 172.82422622 107.32172776 181.8410456 107.31567383 190.85791016 C107.309639 200.13735377 107.32193532 209.41664556 107.3432439 218.69606328 C107.36090284 226.68191847 107.36685437 234.66772553 107.36360615 242.6535995 C107.36179946 247.4147306 107.36436761 252.17575347 107.37832069 256.93686676 C107.3909639 261.41852571 107.388894 265.8999495 107.37590981 270.38160515 C107.37355827 272.01815561 107.37622713 273.65472296 107.38453293 275.29125404 C107.44297587 287.71084813 106.10448317 298.92327577 100.375 310.125 C100.08238281 310.75019531 99.78976562 311.37539063 99.48828125 312.01953125 C93.70915755 323.5543814 82.54556751 332.61257084 73.51586914 341.61450195 C71.43454811 343.69044426 69.35865187 345.77170422 67.28320312 347.85351562 C65.93782062 349.19823752 64.59212806 350.54264929 63.24609375 351.88671875 C62.63753036 352.49730637 62.02896698 353.10789398 61.40196228 353.73698425 C58.36028018 356.76244295 55.26599445 359.66897328 52.01416016 362.46826172 C47.95535255 365.97906041 44.23951693 369.74999647 40.52734375 373.62109375 C39.11878045 375.0666736 37.70924368 376.51130542 36.29882812 377.95507812 C34.12033984 380.18876748 31.94767246 382.42686237 29.79125977 384.68188477 C20.87797947 393.9848724 12.28625864 402.43677047 0 407 C-0.66 406.67 -1.32 406.34 -2 406 C-1.525625 405.0925 -1.05125 404.185 -0.5625 403.25 C1.75853279 398.4222518 2.12543254 394.79719988 2.12863445 389.43379402 C2.13038749 388.77251049 2.13214053 388.11122695 2.13394669 387.42990452 C2.13861469 385.2043984 2.13613913 382.97895737 2.13371277 380.75344849 C2.13558034 379.14559974 2.13788082 377.53775144 2.14057809 375.92990386 C2.14670918 371.50390599 2.14656096 367.07792696 2.14538372 362.6519258 C2.14518004 357.88155433 2.15069528 353.11118896 2.15544128 348.34082031 C2.16375548 338.99203375 2.16649647 329.64325348 2.16705366 320.29446353 C2.16752844 312.6973546 2.16958129 305.10024776 2.17275429 297.5031395 C2.18156283 275.97552894 2.18617333 254.44792336 2.18542381 232.92031099 C2.18538386 231.75922067 2.1853439 230.59813035 2.18530273 229.40185547 C2.18524141 227.65809963 2.18524141 227.65809963 2.18517885 225.8791164 C2.18477229 207.03349089 2.19434393 188.18788535 2.2084411 169.34226562 C2.22279363 150.00307637 2.22971191 130.66389686 2.22884732 111.32470214 C2.22851497 100.46263592 2.23127873 89.60059064 2.24202538 78.73852921 C2.25111559 69.4912558 2.25331782 60.24401283 2.24651595 50.9967369 C2.2432433 46.27707346 2.24322086 41.55746845 2.2518692 36.83781052 C2.25970226 32.51873319 2.25833563 28.19976093 2.24958507 23.88068627 C2.24804301 22.31677895 2.24989265 20.75286391 2.25544515 19.18896569 C2.2624872 17.06514551 2.25722599 14.94169576 2.24888897 12.81788826 C2.24910634 11.63760744 2.24932371 10.45732662 2.24954766 9.24127972 C1.98997683 5.86981283 1.20407056 3.14810607 0 0 Z " fill="#713A97" transform="translate(431,239)"/>
<path d="M0 0 C-0.00092179 0.84253295 -0.00184359 1.6850659 -0.00279331 2.55313015 C-0.10817408 100.68274375 -0.10528423 198.81099138 0.38955754 296.93965191 C0.42727823 304.43403346 0.46260972 311.92842372 0.49703979 319.42282104 C0.54357138 329.49920202 0.59602485 339.57553912 0.65287781 349.65186691 C0.67363144 353.35343103 0.69229439 357.05499622 0.70909119 360.75658035 C0.72854275 365.00962017 0.75263017 369.26260753 0.78049481 373.51560032 C0.78982289 375.05597238 0.79751062 376.5963554 0.80341804 378.13674438 C0.81170222 380.22590873 0.82596983 382.31494902 0.84178162 384.40406799 C0.84823417 385.56554132 0.85468672 386.72701464 0.8613348 387.92368412 C0.98784458 390.73032954 1.35914364 393.27010896 2 396 C-9.33036869 392.09877183 -18.73347701 379.4143564 -27.07421875 371.05859375 C-28.4106466 369.72284133 -29.74722271 368.38723724 -31.0839386 367.05177307 C-33.86821277 364.26896359 -36.65069495 361.48437828 -39.43188477 358.69848633 C-42.97880207 355.14586134 -46.53020628 351.59776097 -50.0829649 348.05097866 C-52.83786141 345.29971159 -55.59035222 342.54604763 -58.34214211 339.79167366 C-59.65021409 338.48293957 -60.9590155 337.17493407 -62.26859093 335.86770439 C-68.72663929 329.41869399 -75.1245652 322.99369856 -81 316 C-81.4581459 315.48297516 -81.91629181 314.96595032 -82.38832092 314.43325806 C-85.41318954 310.96774043 -87.57302389 307.42113709 -89.625 303.3125 C-90.47964844 301.63607422 -90.47964844 301.63607422 -91.3515625 299.92578125 C-96.53711815 288.11984659 -96.50901651 276.67998584 -96.625 264 C-96.65496546 261.83583913 -96.68617562 259.6716952 -96.71850586 257.50756836 C-96.78788227 252.69114832 -96.84814507 247.87471413 -96.90283203 243.05810547 C-96.99514371 235.09773303 -97.11640564 227.13793831 -97.24060631 219.17800903 C-97.51307927 201.66255674 -97.73467747 184.14681566 -97.92522907 166.63029099 C-97.97926737 161.71061548 -98.0413221 156.79111056 -98.10742188 151.87158203 C-98.18674187 145.8710688 -98.24561055 139.87074077 -98.28610229 133.86984253 C-98.30341466 131.74178288 -98.32753143 129.61376536 -98.35916138 127.48587036 C-98.52040548 116.26235197 -98.42505198 106.49808204 -94 96 C-93.722771 95.32485352 -93.44554199 94.64970703 -93.15991211 93.95410156 C-92.45359354 92.37068629 -91.63716813 90.83762699 -90.8125 89.3125 C-90.30332031 88.33925781 -89.79414062 87.36601562 -89.26953125 86.36328125 C-81.65328313 74.25994122 -69.44887252 64.36697112 -59.375 54.375 C-56.06734111 51.09411861 -52.76313885 47.80981085 -49.4609375 44.5234375 C-48.71597015 43.78676849 -47.97100281 43.05009949 -47.20346069 42.29110718 C-43.17902418 38.28536273 -39.35595963 34.18045686 -35.64993286 29.87924194 C-33.12570217 27.00419151 -30.44405243 24.3007559 -27.734375 21.6015625 C-26.89425873 20.76001114 -26.89425873 20.76001114 -26.03717041 19.90145874 C-24.86878007 18.73239529 -23.69915584 17.56456376 -22.52832031 16.39794922 C-20.7364494 14.61149032 -18.95005206 12.81968045 -17.1640625 11.02734375 C-16.02115426 9.88509546 -14.87793632 8.74315695 -13.734375 7.6015625 C-13.20309998 7.06826324 -12.67182495 6.53496399 -12.12445068 5.98550415 C-5.78604488 -0.31275918 -5.78604488 -0.31275918 0 0 Z " fill="#713B97" transform="translate(669,246)"/>
<path d="M0 0 C0.77472656 0.77988281 1.54945313 1.55976562 2.34765625 2.36328125 C7.64768588 7.63208832 11.85419385 10.7178976 19.49911499 11.23809814 C20.78766388 11.23332458 22.07621277 11.22855103 23.40380859 11.22363281 C24.47847885 11.22424461 24.47847885 11.22424461 25.57485962 11.22486877 C27.12331999 11.22506551 28.67178551 11.22105712 30.22022629 11.21326447 C32.68683129 11.20296468 35.15293646 11.20847455 37.61953735 11.21868896 C44.63039849 11.24651689 51.64098204 11.25941332 58.65185547 11.22998047 C62.95148393 11.21306739 67.25022169 11.22585435 71.54976273 11.25643158 C73.1721117 11.26246104 74.79454239 11.25786984 76.41682053 11.24155426 C92.58501197 11.08589319 108.76287775 15.12838884 120.77783203 26.71435547 C125.3408463 31.33558631 129.68176562 36.15112444 134 41 C135.27230469 42.40572266 135.27230469 42.40572266 136.5703125 43.83984375 C137.99707696 45.41746682 139.41915038 46.99934818 140.8359375 48.5859375 C143.32918771 51.36721662 145.84907129 54.12344751 148.375 56.875 C148.83680664 57.37805664 149.29861328 57.88111328 149.77441406 58.39941406 C150.71375179 59.4223065 151.65320554 60.44509241 152.59277344 61.46777344 C154.89708552 63.97677112 157.19841091 66.48850468 159.5 69 C160.41665192 70.00001352 161.3333186 71.00001351 162.25 72 C164.08333333 74 165.91666667 76 167.75 78 C168.2042334 78.49540283 168.6584668 78.99080566 169.12646484 79.5012207 C170.03875052 80.49669204 170.95053836 81.49261984 171.86181641 82.48901367 C174.21653961 85.06235965 176.58060232 87.62609107 178.9609375 90.17578125 C191.60228906 103.74630466 191.60228906 103.74630466 192.5625 109.1875 C191.86635859 112.66820706 190.78386907 113.85244386 188 116 C184.5499409 117.1500197 181.87999916 117.13171133 178.23921204 117.14044189 C177.54808939 117.14341302 176.85696674 117.14638414 176.14490098 117.1494453 C173.82355786 117.1581332 171.5022663 117.15964063 169.1809082 117.16113281 C167.51858917 117.16576101 165.8562712 117.17078567 164.19395447 117.17617798 C159.67307839 117.18930584 155.15221717 117.19574796 150.63132501 117.20018864 C147.80619307 117.20311939 144.98106519 117.20722425 142.15593529 117.21169281 C133.31501735 117.22537019 124.4741087 117.23503506 115.63318092 117.2388947 C105.43133116 117.24337297 95.22961555 117.26090913 85.02780658 117.2898953 C77.14063471 117.31152593 69.25350054 117.32159976 61.36629933 117.32293582 C56.65663097 117.32398307 51.94708866 117.32987357 47.23745155 117.34775543 C42.80430971 117.36425948 38.37138836 117.3663803 33.9382267 117.35761642 C32.31450815 117.35684724 30.69077763 117.36117314 29.06708908 117.37107468 C10.87786398 117.47545536 10.87786398 117.47545536 5.4984026 112.6542244 C-0.0423151 106.48487486 -0.28700673 100.8581015 -0.22705078 92.97729492 C-0.22734283 91.97194702 -0.22763489 90.96659912 -0.22793579 89.93078613 C-0.22654452 86.61392531 -0.21099266 83.29729024 -0.1953125 79.98046875 C-0.19158165 77.67833072 -0.18873502 75.37619109 -0.18673706 73.0740509 C-0.17910627 67.01925257 -0.15946243 60.96455041 -0.1373291 54.90979004 C-0.11685881 48.7295868 -0.1077328 42.549368 -0.09765625 36.36914062 C-0.0762161 24.24605153 -0.04208674 12.12303377 0 0 Z " fill="#713A97" transform="translate(677,533)"/>
<path d="M0 0 C1.03184028 -0.00807831 1.03184028 -0.00807831 2.08452582 -0.01631981 C4.3891132 -0.03062494 6.69312825 -0.02348958 8.9977417 -0.01637268 C10.65035972 -0.0220751 12.30297381 -0.02903886 13.95558167 -0.03717041 C18.44546483 -0.05513557 22.9351529 -0.05392662 27.42506123 -0.04822803 C31.17488253 -0.04513964 34.92466616 -0.05122504 38.67448211 -0.05726677 C47.52429183 -0.07132271 56.37400505 -0.0697431 65.22381592 -0.05836487 C74.3465292 -0.04689474 83.46894812 -0.06093825 92.59162259 -0.08776134 C100.42787788 -0.10993743 108.26404091 -0.11655106 116.10032535 -0.11068493 C120.77869888 -0.10731724 125.45688393 -0.10971736 130.13523102 -0.12693596 C134.53810103 -0.1424324 138.9405365 -0.13841974 143.34338951 -0.11963081 C144.95581417 -0.11595174 146.56827119 -0.1190335 148.18066597 -0.1295166 C165.47627236 -0.23334287 165.47627236 -0.23334287 171.99676514 6.2040863 C172.3589917 6.78029724 172.72121826 7.35650818 173.09442139 7.95018005 C173.66483154 8.81836365 173.66483154 8.81836365 174.24676514 9.7040863 C176.59011656 14.03878357 176.29089741 18.30293921 176.27044678 23.08177185 C176.2705928 23.96978485 176.27073883 24.85779785 176.27088928 25.77272034 C176.27019207 28.71080459 176.26240856 31.64882561 176.25457764 34.5868988 C176.25271278 36.62285324 176.2512892 38.65880813 176.25028992 40.69476318 C176.24647008 46.05579363 176.23664431 51.41679702 176.22558594 56.77781677 C176.21536038 62.24737685 176.21078984 67.7169413 176.20574951 73.18650818 C176.19502159 83.92024403 176.17795153 94.65395979 176.15692139 105.38768005 C166.65457116 105.50437948 157.15247381 105.59279833 147.64955902 105.64674091 C143.23524872 105.67265233 138.82143455 105.70770483 134.40740967 105.76487732 C130.13442732 105.81986615 125.86191711 105.84923866 121.58860779 105.86206627 C119.97176191 105.87118795 118.35493701 105.88899395 116.73829651 105.91633034 C98.77091233 106.20760529 82.1308954 101.9814701 68.74285889 89.2275238 C66.55607678 87.07202126 64.43116627 84.8676301 62.32489014 82.6337738 C60.21743998 80.41794427 58.04198773 78.39712919 55.70770264 76.4228363 C48.09541369 69.86602137 41.20153204 62.48354219 34.1383667 55.34861755 C24.9119147 45.97480194 24.9119147 45.97480194 15.16033936 37.15965271 C10.85303668 33.34995215 6.83829523 29.21608988 2.78167725 25.14280701 C1.20152495 23.55722209 -0.38399837 21.97714563 -1.97003174 20.39744568 C-2.97881667 19.38800113 -3.987292 18.37824706 -4.99542236 17.3681488 C-6.35655151 16.00532776 -6.35655151 16.00532776 -7.74517822 14.61497498 C-10.44179846 11.75203229 -10.79458194 10.9211435 -11.15557861 6.95018005 C-10.84307861 3.38768005 -10.84307861 3.38768005 -9.25123978 1.68925381 C-6.03220142 -0.05058649 -3.65621484 0.00721013 0 0 Z " fill="#713A97" transform="translate(250.84307861328125,234.61231994628906)"/>
<path d="M0 0 C0.11598544 12.50896363 0.20476228 25.01779877 0.25906086 37.52719116 C0.28512503 43.33619212 0.32046582 49.14482445 0.37719727 54.95361328 C0.43162921 60.56222138 0.46144445 66.17047549 0.47438622 71.77932739 C0.48360593 73.9163266 0.50161007 76.05330701 0.52865028 78.19015503 C0.56508855 81.1896918 0.56993908 84.18777657 0.56762695 87.1875 C0.58560333 88.06575943 0.60357971 88.94401886 0.62210083 89.84889221 C0.57031149 96.08148272 -1.07630109 100.14897076 -5 105 C-10.12222322 109.74742639 -13.77210537 111.24889748 -20.74937439 111.26069641 C-21.42713395 111.26452196 -22.10489351 111.26834751 -22.80319124 111.27228898 C-25.07321886 111.28260404 -27.34299284 111.27862974 -29.61303711 111.2746582 C-31.24096409 111.2790055 -32.86888903 111.28418871 -34.49681091 111.29014587 C-38.91827939 111.30354503 -43.33966243 111.30411354 -47.76114726 111.30158257 C-51.45159614 111.30051351 -55.14202769 111.30539457 -58.83247286 111.310188 C-67.53831213 111.3212863 -76.24410825 111.32171873 -84.94995117 111.31567383 C-93.93293703 111.30963243 -102.91576631 111.32194851 -111.89872545 111.3432439 C-119.61008324 111.36085299 -127.32139115 111.36686236 -135.03276831 111.36360615 C-139.63891802 111.36179208 -144.24495605 111.36444181 -148.85108757 111.37832069 C-153.18247292 111.39088321 -157.51361396 111.38896995 -161.8449955 111.37590981 C-163.43449358 111.37354105 -165.02400877 111.37628943 -166.61348724 111.38453293 C-168.78382313 111.39497714 -170.95333576 111.38691933 -173.12364197 111.3742218 C-174.33797881 111.37438954 -175.55231565 111.37455729 -176.80345058 111.37473011 C-180.60096474 110.92954916 -183.27704008 109.72295992 -186 107 C-186.68802214 102.97015603 -186.03625734 100.57091955 -183.75 97.3125 C-180.95399857 93.92069149 -177.89838038 91.01955264 -174.625 88.08984375 C-167.58632643 81.72017214 -160.92151954 74.99976691 -154.25 68.25 C-141.34926762 55.19979706 -141.34926762 55.19979706 -137.03125 51.54296875 C-133.31578396 48.38492023 -129.92588692 44.95219004 -126.515625 41.47265625 C-125.92879944 40.87558868 -125.34197388 40.27852112 -124.73736572 39.6633606 C-122.29479547 37.17563698 -119.85414897 34.68632836 -117.42871094 32.18188477 C-108.14650712 22.61320862 -98.85661404 13.57838568 -86 9.0625 C-84.948125 8.68222656 -83.89625 8.30195312 -82.8125 7.91015625 C-78.30143452 6.45032534 -74.57207243 5.87037701 -69.79785156 5.84228516 C-68.54264709 5.83202301 -67.28744263 5.82176086 -65.99420166 5.81118774 C-65.32590584 5.80774982 -64.65761002 5.8043119 -63.96906281 5.80076981 C-61.86614263 5.7889246 -59.76342268 5.76945634 -57.6605835 5.74765015 C-51.68297067 5.68623318 -45.70537901 5.63210173 -39.72753906 5.59863281 C-36.06580404 5.57758414 -32.40443624 5.54219991 -28.74291229 5.49787521 C-27.35402524 5.48379486 -25.96507323 5.47501092 -24.57611847 5.47182083 C-15.99092849 5.45002045 -7.10587169 0 0 0 Z " fill="#713A97" transform="translate(426,539)"/>
<path d="M0 0 C1.08013115 0.00137466 1.08013115 0.00137466 2.18208313 0.0027771 C3.70080177 0.00879288 5.21950968 0.02447804 6.73803711 0.04931641 C9.02699071 0.08556079 11.31430627 0.09033685 13.60351562 0.08984375 C31.52101395 0.17575065 48.0585545 2.95091913 61.5859375 15.52734375 C73.19667764 27.65893952 74.86385886 41.92704534 74.546875 57.96484375 C74.38015666 62.99435293 73.904095 67.65197669 72.36328125 72.4609375 C72.05648437 73.42128906 71.7496875 74.38164063 71.43359375 75.37109375 C67.3676745 86.461239 59.86459317 94.99829853 49.36328125 100.4609375 C37.38267447 105.81048704 26.94626874 107.80204517 13.87915039 107.72167969 C11.80129949 107.71094018 9.72430941 107.72163512 7.64648438 107.734375 C-8.62732901 107.75471864 -8.62732901 107.75471864 -13.4765625 104.05859375 C-17.32319741 98.67878051 -17.79160895 94.76773777 -17.8137207 88.32104492 C-17.8202919 87.49143753 -17.8268631 86.66183014 -17.83363342 85.80708313 C-17.85335259 83.06018991 -17.86502554 80.31335132 -17.875 77.56640625 C-17.87907553 76.62784601 -17.88315105 75.68928577 -17.88735008 74.72228432 C-17.90820427 69.75520676 -17.92250919 64.78815678 -17.93188477 59.82104492 C-17.94295182 54.69293835 -17.97735701 49.56526538 -18.01705647 44.43731213 C-18.04320923 40.49187924 -18.05157538 36.54654992 -18.05516624 32.60103798 C-18.06003515 30.71081931 -18.07165778 28.82060537 -18.09020424 26.93047142 C-18.11456879 24.28296966 -18.1136358 21.63659337 -18.10668945 18.98901367 C-18.11949951 18.21113495 -18.13230957 17.43325623 -18.14550781 16.63180542 C-18.09568259 11.41142994 -16.93378009 8.48035151 -13.63671875 4.4609375 C-9.20618844 0.71193721 -5.65860813 -0.11989983 0 0 Z " fill="#723C97" transform="translate(210.63671875,710.5390625)"/>
<path d="M0 0 C1.7005957 0.00193359 1.7005957 0.00193359 3.43554688 0.00390625 C24.52068444 0.22016407 24.52068444 0.22016407 28.82920837 4.50486755 C31.10768532 8.02397646 31.18322278 10.04063883 31.17333984 14.2097168 C31.17713654 14.87713394 31.18093323 15.54455109 31.18484497 16.23219299 C31.19222944 18.43001943 31.17088879 20.62651046 31.1484375 22.82421875 C31.14605024 24.362532 31.14514835 25.9008482 31.1456604 27.43916321 C31.14253529 30.66299719 31.12600162 33.88638559 31.09912109 37.11010742 C31.06528474 41.21757704 31.05748884 45.32455437 31.05901146 49.43214703 C31.05846398 52.61087134 31.04743445 55.78949062 31.03300858 58.9681797 C31.02669528 60.48104878 31.02271467 61.99392963 31.02122116 63.50681114 C30.99370394 76.82084755 29.98706479 88.26978327 22.5625 99.625 C13.60294279 108.19501124 2.67118328 109.71273379 -9.1875 109.625 C-10.74404297 109.63660156 -10.74404297 109.63660156 -12.33203125 109.6484375 C-27.51858001 109.61013599 -27.51858001 109.61013599 -32.8125 105.375 C-35.68298479 101.54768695 -35.90069539 98.04491494 -35.3125 93.375 C-34 90.3125 -34 90.3125 -31.3125 88.375 C-28.73724031 88.27836737 -26.34578599 88.60999871 -23.79296875 88.96484375 C-19.51636278 89.46882088 -15.30260022 89.58521778 -11 89.625 C-10.2354248 89.6458667 -9.47084961 89.6667334 -8.68310547 89.68823242 C-2.97947754 89.72625661 0.85532678 88.51909643 5.48828125 85.01171875 C7.10183861 82.80950203 7.42270309 80.86648941 7.875 78.1875 C8.03355469 77.28644531 8.19210937 76.38539063 8.35546875 75.45703125 C8.46503906 74.76996094 8.57460938 74.08289063 8.6875 73.375 C7.90890625 73.69597656 7.1303125 74.01695312 6.328125 74.34765625 C-2.77037823 76.91515233 -15.68680925 77.34351463 -24.3125 73.1875 C-27.77303828 71.00157279 -30.65426924 68.50233031 -33.3125 65.375 C-33.993125 64.694375 -34.67375 64.01375 -35.375 63.3125 C-42.69520712 52.21412147 -42.63784619 39.24793287 -40.25 26.5625 C-37.67286096 16.75973749 -31.94798518 9.55010684 -23.3125 4.375 C-15.5745901 0.30989019 -8.63382057 -0.18462869 0 0 Z " fill="#713B97" transform="translate(741.3125,735.625)"/>
<path d="M0 0 C9.59543226 6.86598951 15.13319685 15.76615103 17.3125 27.3125 C18.69507504 40.03953395 17.84438709 52.48792967 10.2578125 63.21875 C2.50611584 72.33839313 -6.27409769 77.56097605 -18.2734375 78.6328125 C-30.24580092 78.99708319 -39.76211552 76.47285152 -48.6875 68.3125 C-57.4625803 59.84281693 -60.59269715 49.11090422 -61.02392578 37.17578125 C-61.24209723 24.51631386 -57.85178362 14.04006882 -49.09765625 4.59765625 C-35.63233351 -7.85380689 -15.545684 -9.5886824 0 0 Z " fill="#723C97" transform="translate(674.6875,740.6875)"/>
<path d="M0 0 C3.18904286 2.60921688 3.83767434 3.91009913 4.4375 7.9375 C3.9075475 11.64716748 3.20245944 13.94497561 1 17 C-2.38996834 17.94165787 -4.89399341 18.22635409 -8.34765625 17.51953125 C-11.29420562 16.94237209 -14.06111926 16.79553296 -17.0625 16.75 C-18.08472656 16.72421875 -19.10695313 16.6984375 -20.16015625 16.671875 C-23.37796333 17.04367114 -24.70713589 17.75009353 -27 20 C-27.83356413 22.45587964 -27.83356413 22.45587964 -27 25 C-21.60489491 29.22487496 -15.42811053 31.39920525 -9.07617188 33.82421875 C-1.44350374 36.88215921 4.9101005 40.98995716 8.34375 48.73046875 C10.43140002 55.95025841 9.53492119 63.4227286 6 70 C2.01306992 76.55914303 -3.84727081 78.68940151 -11 81 C-21.74748686 83.40683156 -38.05478174 84.21588746 -48 79 C-50.63029657 76.18728913 -50.98889381 75.08607299 -51.5 71.125 C-51.35669354 68.06970629 -50.77675103 65.98218405 -49.0625 63.4375 C-46 61 -46 61 -44.09912109 60.97631836 C-43.39352051 61.09628174 -42.68791992 61.21624512 -41.9609375 61.33984375 C-36.8040303 62.07415556 -31.76497614 62.14813926 -26.5625 62.125 C-25.21768555 62.13080078 -25.21768555 62.13080078 -23.84570312 62.13671875 C-22.56276367 62.13478516 -22.56276367 62.13478516 -21.25390625 62.1328125 C-20.48377197 62.13168457 -19.7136377 62.13055664 -18.92016602 62.12939453 C-16.91505593 62.11838843 -16.91505593 62.11838843 -15 61 C-15 59.02 -15 57.04 -15 55 C-16.27230469 54.36384766 -16.27230469 54.36384766 -17.5703125 53.71484375 C-19.388837 52.8055815 -21.20718341 51.8959322 -23.02148438 50.97827148 C-26.26735767 49.34114833 -29.52025149 47.7491025 -32.8359375 46.2578125 C-39.87367355 43.03778185 -45.3731722 40.09932249 -49 33 C-51.04400161 26.86799517 -51.24839327 18.56760664 -49.09375 12.41015625 C-44.84605214 5.3170454 -38.97876407 1.31862888 -31.25390625 -1.27734375 C-21.55247278 -3.43192381 -9.44134248 -2.9970051 0 0 Z " fill="#723D98" transform="translate(385,737)"/>
<path d="M0 0 C3.99497537 2.19331981 5.52415991 3.49008318 6.90234375 7.86328125 C7.37400813 9.95135222 7.79705153 12.05117294 8.1640625 14.16015625 C9.16421068 17.55785589 10.14456779 18.91709911 13 21 C15.8335875 21.58535022 15.8335875 21.58535022 18.875 21.5625 C24.69309329 21.87431012 28.52640515 22.76578529 32.9375 26.75 C34.58771076 30.24456396 34.09125068 32.34110065 33 36 C30.87101637 38.72036797 30.05475969 39.69559531 27 41 C23.71244933 41.37548168 20.52729711 41.50025997 17.21875 41.46875 C13.96921438 42.00508112 11.61058407 42.65959553 9.15576172 44.93554688 C6.58091369 49.5348107 7.16609608 55.20284189 7.27270508 60.34716797 C7.31241106 62.49518837 7.29340282 64.63703326 7.26757812 66.78515625 C7.27513804 68.15887795 7.28609237 69.53258603 7.30078125 70.90625 C7.31878784 72.76733398 7.31878784 72.76733398 7.3371582 74.66601562 C8.17832377 78.89693899 9.60122869 80.40964767 13 83 C15.13642637 83.5972226 15.13642637 83.5972226 17.28515625 83.3125 C18.06310547 83.27382813 18.84105469 83.23515625 19.64257812 83.1953125 C20.84043945 83.09863281 20.84043945 83.09863281 22.0625 83 C28.029771 82.52070112 28.029771 82.52070112 31 83 C33.78258505 85.40411907 34.780331 86.95172663 35.53125 90.53515625 C35.44675888 97.36837537 35.44675888 97.36837537 33.1875 100.5625 C28.15726082 103.86808575 22.74389353 103.25782586 16.9375 103.3125 C15.43799805 103.35600586 15.43799805 103.35600586 13.90820312 103.40039062 C6.19562684 103.46553909 -0.87805664 102.34450913 -7.02319336 97.35839844 C-16.17088912 87.86939775 -16.62779626 76.13189973 -16.6015625 63.640625 C-16.60935553 62.08127393 -16.61802874 60.52192703 -16.62753296 58.96258545 C-16.64235725 55.7149876 -16.64194488 52.46782514 -16.63134766 49.22021484 C-16.6197103 45.07170054 -16.65377717 40.92495834 -16.700037 36.77673721 C-16.72956773 33.56463328 -16.73124893 30.35295508 -16.72501755 27.14073944 C-16.72603924 25.61139132 -16.73642575 24.08201789 -16.75664139 22.55280304 C-16.91192944 9.17777648 -16.91192944 9.17777648 -13.20458984 4.63574219 C-9.29199973 0.88040008 -5.43818919 -0.76134649 0 0 Z " fill="#723C98" transform="translate(422,715)"/>
<path d="M0 0 C2.6875 2.0625 2.6875 2.0625 4 5 C4.30006571 9.4685461 3.61759849 12.78698198 1.5859375 16.77734375 C-2.42402938 20.22397691 -6.28767104 19.38655589 -11.375 19.0625 C-18.68464175 18.5367821 -18.68464175 18.5367821 -25.51953125 20.76953125 C-27.66581582 22.69949737 -29.0384627 24.0769254 -30.3125 26.625 C-31.20833333 28.41666667 -32.10416667 30.20833333 -33 32 C-33.70754144 40.65222101 -33.81309952 48.23395157 -29.6796875 56.08203125 C-27.25336065 58.85255795 -25.52703371 59.79095133 -22 61 C-16.85849905 61.25909704 -11.72437812 60.92135163 -6.58984375 60.61914062 C-3.62413084 60.52566018 -0.92398211 60.48999309 2 61 C5.19043722 64.2776578 5.88380153 66.0538125 6.4375 70.5625 C5.96940098 74.24042089 5.30467552 76.11915561 3 79 C-4.4709161 84.33636864 -18.31215113 82.83686554 -27.1328125 81.5390625 C-36.77133547 79.20494725 -44.71596101 74.6194601 -50.53125 66.5 C-57.22986714 55.09809848 -58.773218 41.30179501 -56.31640625 28.4140625 C-52.92764919 16.34952492 -45.64066638 7.58439983 -34.875 1.125 C-24.26462875 -3.0268844 -10.88748024 -4.10440723 0 0 Z " fill="#723C98" transform="translate(881,737)"/>
<path d="M0 0 C1.6875 1.1875 1.6875 1.1875 3.6875 4.1875 C3.89040132 6.90856004 3.97805286 9.52946837 3.97460938 12.25146484 C3.98144241 13.07292496 3.98827545 13.89438507 3.99531555 14.74073792 C4.00890738 16.52496985 4.01795821 18.3092408 4.02302551 20.0935173 C4.03130761 22.91808416 4.05180685 25.74232662 4.07556152 28.56680298 C4.12382012 34.56532057 4.15672674 40.56387056 4.1875 46.5625 C4.22316908 53.50658898 4.26511749 60.45051994 4.32344055 67.39445877 C4.34349652 70.17578479 4.3518268 72.95698958 4.35974121 75.7383728 C4.37271634 77.44716836 4.38623705 79.15595989 4.40039062 80.86474609 C4.39940872 81.63686935 4.39842682 82.40899261 4.39741516 83.20451355 C4.44441806 87.28226564 4.7430389 90.56381469 6.6875 94.1875 C8.61685479 95.4758317 8.61685479 95.4758317 10.8125 96.375 C13.49890303 97.91357628 14.5026063 98.52949594 15.3515625 101.55078125 C15.48898524 105.76716085 15.08296235 108.48445583 13 112.1875 C9.18013225 115.49116941 6.97036727 116.22956122 1.875 116.0625 C-5.34780764 114.86549986 -10.38658929 111.70351766 -15.0859375 106.1640625 C-18.44101729 100.75746895 -18.61390795 95.40174758 -18.61889648 89.24804688 C-18.62722 88.36923355 -18.63554352 87.49042023 -18.64411926 86.5849762 C-18.66813347 83.6920219 -18.67697936 80.79929326 -18.68359375 77.90625 C-18.69256415 75.88895604 -18.70168607 73.87166274 -18.71095276 71.85437012 C-18.72742023 67.63124985 -18.73513922 63.40820867 -18.73803711 59.18505859 C-18.74342922 53.77778599 -18.78115333 48.37125745 -18.82678127 42.96419525 C-18.85653735 38.80000088 -18.8637603 34.63598639 -18.86476326 30.47169495 C-18.86896573 28.47820108 -18.88140109 26.48470669 -18.90228081 24.49131775 C-18.92917478 21.70263927 -18.92437668 18.9156956 -18.91186523 16.12695312 C-18.92669952 15.30703384 -18.94153381 14.48711456 -18.95681763 13.64234924 C-18.88228103 7.80024102 -17.49170192 5.28164213 -13.3125 1.1875 C-9.37298472 -1.70147787 -4.5168768 -1.58701077 0 0 Z " fill="#713B97" transform="translate(594.3125,701.8125)"/>
<path d="M0 0 C19.59676799 -0.76850071 19.59676799 -0.76850071 28 4 C29.0725 4.53625 30.145 5.0725 31.25 5.625 C36.18289833 9.88523038 40.66724548 16.65904519 41.17700195 23.30908203 C41.24373112 26.24782375 41.28494336 29.18562462 41.3125 32.125 C41.34150391 33.13304687 41.37050781 34.14109375 41.40039062 35.1796875 C41.48242872 44.92328917 38.69558739 52.05620585 32.05859375 59.20703125 C24.54388759 65.7520979 16.31976822 67.15396008 6.625 67.0625 C5.37976563 67.05347656 4.13453125 67.04445313 2.8515625 67.03515625 C1.91054687 67.02355469 0.96953125 67.01195312 0 67 C-1.99101899 63.6733283 -2.25270165 61.15121607 -2.25878906 57.30102539 C-2.26509338 56.15626236 -2.27139771 55.01149933 -2.27789307 53.83204651 C-2.2738446 52.59969772 -2.26979614 51.36734894 -2.265625 50.09765625 C-2.26753845 48.8278038 -2.2694519 47.55795135 -2.27142334 46.24961853 C-2.27278452 43.56381606 -2.27009778 40.87837743 -2.26074219 38.19262695 C-2.24935938 34.75837347 -2.25590334 31.32443303 -2.26788712 27.89019108 C-2.27687399 24.60516843 -2.27057125 21.320183 -2.265625 18.03515625 C-2.26967346 16.8048317 -2.27372192 15.57450714 -2.27789307 14.30690002 C-2.27158875 13.15898483 -2.26528442 12.01106964 -2.25878906 10.82836914 C-2.25719788 9.82117325 -2.25560669 8.81397736 -2.25396729 7.77626038 C-1.98588051 4.84565188 -1.22582912 2.66107736 0 0 Z " fill="#FDFDFE" transform="translate(219,731)"/>
<path d="M0 0 C0.94286865 -0.00926514 1.8857373 -0.01853027 2.85717773 -0.02807617 C8.19105992 -0.00397944 12.64299444 0.49659945 17.6875 2.25 C18.24447798 13.84339347 18.24447798 13.84339347 14.6875 19.25 C13.6875 20.25 13.6875 20.25 11.64624023 20.36352539 C10.77169189 20.35828857 9.89714355 20.35305176 8.99609375 20.34765625 C8.05185547 20.34443359 7.10761719 20.34121094 6.13476562 20.33789062 C5.14154297 20.32951172 4.14832031 20.32113281 3.125 20.3125 C2.12791016 20.30798828 1.13082031 20.30347656 0.10351562 20.29882812 C-2.36854849 20.28700007 -4.84049518 20.27051849 -7.3125 20.25 C-8.52888082 22.68276165 -8.44988462 24.26860997 -8.47021484 26.98754883 C-8.48560806 28.46467094 -8.48560806 28.46467094 -8.50131226 29.97163391 C-8.50861359 31.03931503 -8.51591492 32.10699615 -8.5234375 33.20703125 C-8.55150752 35.45638747 -8.580172 37.70573633 -8.609375 39.95507812 C-8.65064188 43.51017034 -8.68751946 47.06512546 -8.71386719 50.62036133 C-8.74146716 54.04537516 -8.78734269 57.46975958 -8.8359375 60.89453125 C-8.83919037 61.95613968 -8.84244324 63.01774811 -8.84579468 64.11152649 C-8.95909275 70.91089149 -9.71656941 74.58196023 -14.5625 79.5625 C-18.15429997 81.76655907 -20.1569131 81.83324027 -24.3125 81.25 C-27.66514745 79.54204753 -29.74558295 78.37009641 -31.46231079 74.97824097 C-32.40700381 71.94673909 -32.57962404 69.45887931 -32.60302734 66.28564453 C-32.61578705 65.10737091 -32.62854675 63.92909729 -32.64169312 62.71511841 C-32.64391876 61.45045746 -32.64614441 60.18579651 -32.6484375 58.8828125 C-32.6550943 57.57472626 -32.6617511 56.26664001 -32.66860962 54.91891479 C-32.68056059 52.15342915 -32.68429271 49.38806822 -32.68310547 46.62255859 C-32.68290239 43.09302157 -32.71020149 39.56429071 -32.74464989 36.03494453 C-32.77234383 32.65088937 -32.77107002 29.26697939 -32.7734375 25.8828125 C-32.78780853 24.62220001 -32.80217957 23.36158752 -32.81698608 22.06277466 C-32.7816259 15.25550546 -32.51776102 10.72375222 -28.3125 5.25 C-20.43753181 -0.76017573 -9.45311676 0.05861792 0 0 Z " fill="#723C98" transform="translate(502.3125,735.75)"/>
<path d="M0 0 C4.00114523 2.11381257 6.39577514 3.76224977 8 8 C8.26069641 10.83236694 8.26069641 10.83236694 8.2746582 14.14208984 C8.28895622 16.00454849 8.28895622 16.00454849 8.30354309 17.90463257 C8.30328162 19.2567345 8.30234438 20.60883645 8.30078125 21.9609375 C8.30467057 23.35332364 8.30900573 24.74570861 8.31376648 26.13809204 C8.32122181 29.05499112 8.32094283 31.97176915 8.31567383 34.88867188 C8.30988557 38.61661476 8.32679737 42.34405977 8.3500185 46.07192039 C8.36479169 48.94765087 8.36562261 51.8232625 8.36250877 54.6990242 C8.36302037 56.072872 8.36822771 57.44672674 8.37832069 58.82053757 C8.39073344 60.74669312 8.38192845 62.67294954 8.37231445 64.59912109 C8.37294388 65.69292084 8.3735733 66.78672058 8.3742218 67.91366577 C7.81640916 72.51413596 6.32664747 75.89446044 2.75 78.875 C-1.70225636 80.6963776 -5.29774364 80.6963776 -9.75 78.875 C-13.32310052 75.89741623 -14.81264807 72.51455192 -15.38095093 67.9203949 C-15.38333771 66.82961136 -15.38572449 65.73882782 -15.38818359 64.61499023 C-15.39764008 63.37027451 -15.40709656 62.12555878 -15.4168396 60.84312439 C-15.41146996 59.49827757 -15.40531703 58.15343369 -15.3984375 56.80859375 C-15.40046075 55.4166702 -15.40337428 54.02474769 -15.40713501 52.63282776 C-15.41154513 49.72362113 -15.40516907 46.81469184 -15.39111328 43.90551758 C-15.37400578 40.18422898 -15.38388015 36.46358882 -15.40183067 32.74232388 C-15.41269067 29.87090704 -15.40921238 26.99964304 -15.4014473 24.12822151 C-15.39945222 22.7563475 -15.40188016 21.38445942 -15.40888596 20.01260185 C-15.41653783 18.09360916 -15.40279947 16.17456752 -15.38818359 14.25561523 C-15.38579681 13.16562729 -15.38341003 12.07563934 -15.38095093 10.95262146 C-14.81522935 6.56790538 -13.16720286 3.94024675 -9.75 1.1875 C-6.1888795 -0.35025658 -3.85081154 -0.47290668 0 0 Z " fill="#733E98" transform="translate(312,737)"/>
<path d="M0 0 C3.7070867 1.68503941 5.90038115 3.52737915 8 7 C8.39440918 9.94625854 8.39440918 9.94625854 8.41992188 13.41748047 C8.43583374 14.71918182 8.45174561 16.02088318 8.46813965 17.36203003 C8.46940704 18.7804153 8.46958368 20.19880191 8.46875 21.6171875 C8.47585397 23.07683606 8.48355332 24.53648184 8.49182129 25.99612427 C8.50526104 29.05429852 8.50683766 32.11221466 8.50097656 35.17041016 C8.49508579 39.08025699 8.52564629 42.98885975 8.56609344 46.89846611 C8.59200765 49.91320409 8.59484449 52.92764418 8.59120178 55.94247818 C8.59289011 57.38333381 8.60250509 58.82420363 8.62034607 60.2649498 C8.75987643 72.92746808 8.75987643 72.92746808 5.65039062 76.86767578 C1.52482298 80.1868272 -1.79931521 80.5288832 -7 80 C-10.47884669 77.99327106 -12.7062659 75.88120231 -14 72 C-14.1141852 69.93143194 -14.16929377 67.85942481 -14.19287109 65.7878418 C-14.20893402 64.50608566 -14.22499695 63.22432953 -14.24154663 61.9037323 C-14.25303388 60.50223455 -14.26364246 59.10072935 -14.2734375 57.69921875 C-14.27876118 56.99234232 -14.28408485 56.28546589 -14.28956985 55.55716896 C-14.31627233 51.81554882 -14.33565637 48.0739617 -14.35009766 44.33227539 C-14.36343548 41.24082846 -14.39128751 38.15004185 -14.43212891 35.05883789 C-14.48151411 31.3205559 -14.50622535 27.58287259 -14.51332474 23.84427834 C-14.52002563 22.42292555 -14.53521774 21.00158552 -14.55921555 19.58041954 C-14.75837633 7.07237708 -14.75837633 7.07237708 -11.59228516 3.14379883 C-7.55123276 -0.19811877 -5.2482035 -0.35581041 0 0 Z " fill="#713B97" transform="translate(802,737)"/>
<path d="M0 0 C2.75 1.3125 2.75 1.3125 5 3 C5.53274536 3.3978923 6.06549072 3.79578461 6.61437988 4.20573425 C8.6798266 6.88032035 8.39574071 9.04829538 8.41992188 12.39575195 C8.42839142 13.0400415 8.43686096 13.68433105 8.44558716 14.34814453 C8.46898759 16.47839095 8.46997843 18.607916 8.46875 20.73828125 C8.47585169 22.22177926 8.4835507 23.70527452 8.49182129 25.18876648 C8.50527439 28.29999418 8.50683212 31.41096814 8.50097656 34.5222168 C8.49509068 38.50046584 8.52561988 42.47749013 8.56609344 46.45550251 C8.59200865 49.52085374 8.59484427 52.58591198 8.59120178 55.65135765 C8.59289064 57.11733252 8.60251077 58.58332127 8.62034607 60.04918861 C8.75991486 72.94277833 8.75991486 72.94277833 5.65039062 76.88354492 C1.51921214 80.18247512 -1.80619778 80.52818328 -7 80 C-10.47884669 77.99327106 -12.7062659 75.88120231 -14 72 C-14.10921432 69.92602624 -14.1589573 67.84874162 -14.17700195 65.77197266 C-14.18983719 64.48698883 -14.20267242 63.202005 -14.21589661 61.87808228 C-14.22406357 60.47341294 -14.23150739 59.06873924 -14.23828125 57.6640625 C-14.24235678 56.95593792 -14.2464323 56.24781334 -14.25063133 55.51823044 C-14.27147108 51.7712712 -14.28578271 48.02434837 -14.29516602 44.27734375 C-14.30623587 40.41132426 -14.34064751 36.54587948 -14.38033772 32.68006325 C-14.40650128 29.7031651 -14.41485748 26.72640411 -14.41844749 23.74940109 C-14.42331294 22.32445766 -14.43492592 20.89952035 -14.45348549 19.47468948 C-14.47787009 17.47887319 -14.47449279 15.48277654 -14.4699707 13.48681641 C-14.47877007 11.78496689 -14.47877007 11.78496689 -14.48774719 10.04873657 C-13.88852901 6.30323396 -12.62018481 4.69478788 -10 2 C-6.27420911 -0.48386059 -4.41288598 -0.3804212 0 0 Z " fill="#713B97" transform="translate(548,737)"/>
<path d="M0 0 C4.94384088 2.47626477 7.34525793 5.97373357 9.40893555 11.06665039 C10.40525851 14.32558534 10.44486132 17.56558087 10.375 20.9375 C10.36557373 21.64116699 10.35614746 22.34483398 10.34643555 23.06982422 C10.10127595 31.49510983 7.7816678 36.92183642 2 43 C-2.21023861 45.10511931 -7.42671191 44.52009943 -12 44 C-16.05216062 42.25216283 -17.80410069 39.37828833 -19.8125 35.5 C-22.7112036 26.95645255 -23.98781048 16.15284972 -20.0859375 7.72265625 C-15.20396622 -0.02176582 -8.91589536 -1.80253515 0 0 Z " fill="#FDFCFD" transform="translate(659,755)"/>
<path d="M0 0 C1.28132812 0.00902344 2.56265625 0.01804687 3.8828125 0.02734375 C4.87023437 0.03894531 5.85765625 0.05054688 6.875 0.0625 C10.17190838 5.45863419 9.20295436 11.8237562 9.1875 17.9375 C9.20361328 19.20464844 9.21972656 20.47179687 9.23632812 21.77734375 C9.23697266 23.00324219 9.23761719 24.22914063 9.23828125 25.4921875 C9.24126221 26.60835449 9.24424316 27.72452148 9.24731445 28.87451172 C8.82174754 32.51848072 7.76488755 34.93466844 5.875 38.0625 C1.39628023 40.30185988 -4.2767337 39.6569898 -9.125 39.0625 C-12.9348611 37.34171274 -15.20944075 35.01014423 -16.984375 31.234375 C-17.60988178 29.15498759 -17.91352033 27.22343772 -18.125 25.0625 C-18.20621094 24.27617188 -18.28742187 23.48984375 -18.37109375 22.6796875 C-18.70690057 16.18742233 -17.34415374 10.72448423 -14.125 5.0625 C-9.39669285 0.44677159 -6.50056801 -0.05909607 0 0 Z " fill="#FCFBFD" transform="translate(741.125,753.9375)"/>
<path d="M0 0 C3.19026198 2.10267267 4.88874348 3.44792091 6.75 6.8125 C7.42598228 11.42285103 7.31499392 15.41488345 5.5625 19.75 C2.69696659 23.0107794 0.59990034 24.52613772 -3.7734375 25.203125 C-8.92102091 25.5133903 -12.34625809 25.34195339 -16.375 21.9375 C-19.42361706 18.9180563 -20.42377287 16.85573968 -20.5625 12.5625 C-20.50272495 7.91499011 -19.3758769 5.3607927 -16.25 1.8125 C-11.25059415 -2.35367154 -5.82611284 -2.128772 0 0 Z " fill="#723D98" transform="translate(315.25,702.1875)"/>
<path d="M0 0 C3.94391319 1.31966502 6.49830474 3.325847 9 6.6875 C10.32825512 11.08734509 10.30729846 14.58983652 9 19 C6.96757487 22.50922325 4.93079881 24.68973373 1 26 C-4.12776758 26.48420096 -8.51585923 26.84808044 -13.0625 24.25 C-16.82977143 19.87510415 -17.54507039 16.23425843 -17.4609375 10.546875 C-16.6951155 6.31538397 -14.21271539 3.72165267 -11 1 C-7.51453824 -0.74273088 -3.8107704 -0.44282275 0 0 Z " fill="#723D98" transform="translate(549,701)"/>
<path d="M0 0 C3.16484654 1.71787077 4.92411669 3.1889094 6.93359375 6.203125 C7.59227394 11.57979355 7.86406617 16.5415671 5.18359375 21.328125 C0.48784754 25.24124684 -3.347547 25.69025911 -9.36328125 25.59375 C-13.62275125 24.97821965 -15.24482155 23.39597085 -18.06640625 20.203125 C-19.80460381 14.98853233 -19.94888569 9.38610046 -17.87890625 4.265625 C-13.08141819 -1.19358555 -6.83320412 -2.63511085 0 0 Z " fill="#723C97" transform="translate(805.06640625,701.796875)"/>
</svg>
