<svg width="241" height="37" viewBox="0 0 241 37" fill="none" xmlns="http://www.w3.org/2000/svg">
<g clip-path="url(#clip0_1_2)">
<g clip-path="url(#clip1_1_2)">
<path d="M-0.599976 11L5 1.40002C5.1 1.30002 5.20002 1.19995 5.40002 1.19995H24.1C24.4 1.19995 24.7 1.60002 24.5 1.90002L17 15C16.8 15.3 16.4 15.3 16.2 15L14.1 11.3C14 11.2 14 11 14.1 10.9L18.6 2.80005C18.8 2.50005 18.6 2.09998 18.2 2.09998H17.3C17.1 2.09998 17 2.20005 16.9 2.30005L9.59998 14.9C9.39998 15.2 8.99999 15.2 8.79999 14.9L6.70001 11.2C6.60001 11.1 6.60001 10.9 6.70001 10.8L11.4 2.80005C11.6 2.50005 11.4 2.09998 11 2.09998H10.2C10 2.09998 9.89999 2.20005 9.79999 2.30005L2.59998 15C2.39998 15.3 1.99999 15.3 1.79999 15L-0.700012 11.4C-0.600012 11.3 -0.699976 11.1 -0.599976 11Z" fill="#606060"/>
<path d="M13 26.2L27.3 1.40002C27.4 1.30002 27.5 1.19995 27.6 1.19995H36.7C37 1.19995 37.2 1.50005 37 1.80005L34.7 5.80005C34.6 6.00005 34 6.80002 35 6.90002L36.3 7C36.6 7.2 36.6 7.59995 36.2 7.69995L33.5 8.5C33.4 8.5 33.3 8.59995 33.3 8.69995L18.4 35.1C18.2 35.4 17.9 35.4 17.7 35.1L12.9 26.6C12.9 26.5 12.9 26.3 13 26.2Z" fill="#C12026"/>
<path d="M28.2 33.1L36.6 20.4C36.8 20.1 37.2 19.9 37.6 19.9H71.1C72 19.9 72.6 20.9 72.1 21.7L64.1 34.3C63.9 34.6 63.5 34.8 63.1 34.8H56.5C55.6 34.8 55 33.8 55.5 33L61.4 23.9C61.9 23.1 61.4 22.1 60.4 22.1H59.2C58.8 22.1 58.4 22.3 58.2 22.6L50.5 34.6C50.3 34.9 49.9 35.1 49.5 35.1H42.9C42 35.1 41.4 34.1 41.9 33.3L47.9 23.5C48.4 22.7 47.8 21.7 46.9 21.7H46.1C45.7 21.7 45.3 21.9 45.1 22.2L37.4 34.4C37.2 34.7 36.8 35 36.4 34.9L29.1 34.6C28.2 34.9 27.7 33.9 28.2 33.1Z" fill="#606060"/>
<path d="M86.6 21.7L78.4 34.7C78.2 35 77.8 35.3 77.4 35.2L70.1 34.9C69.2 34.9 68.7 33.9 69.2 33.1L77.6 20.4C77.8 20.1 78.2 19.9 78.6 19.9H85.8C86.6 19.9 87.1 20.9 86.6 21.7Z" fill="#606060"/>
<path d="M110.7 33.5L125.4 9.19995C125.6 8.89995 126 8.59998 126.4 8.59998H132.5C133.3 8.59998 133.9 9.49995 133.6 10.2L132.3 13.2C132 13.8 132.4 14.6 133 14.8L135.5 15.6L130.4 17.4C130.2 17.5 129.9 17.7 129.8 17.9L119.4 34.7C119.2 35 118.8 35.2 118.4 35.2H111.7C110.8 35.3 110.3 34.3 110.7 33.5Z" fill="#606060"/>
<path d="M83.2 33.5L91.5 19.8C91.7 19.5 92.1 19.2 92.5 19.2H114.2C114.9 19.2 115.4 19.8 115.4 20.4C115.3 21.9 114.8 24.4 112.4 24.5C109 24.6 108.5 24.5 103.9 24.4C102.7 23.3 104.1 22.4 103.6 22.4H100.6C100.2 22.4 99.8 22.6 99.6 23L93.4 34.6C93.2 35 92.8 35.2 92.4 35.2H84.3C83.2 35.3 82.7 34.3 83.2 33.5Z" fill="#606060"/>
<path d="M124.8 33.5L133.1 19.8C133.3 19.5 133.7 19.2 134.1 19.2H155.8C156.5 19.2 157 19.8 157 20.4C156.9 21.9 156.4 24.4 154 24.5C150.6 24.6 150.1 24.5 145.5 24.4C144.3 23.3 145.7 22.4 145.2 22.4H142.2C141.8 22.4 141.4 22.6 141.2 23L135 34.6C134.8 35 134.4 35.2 134 35.2H125.9C124.9 35.3 124.3 34.3 124.8 33.5Z" fill="#606060"/>
<path d="M183.5 19.1H162.9C162.5 19.1 162.1 19.3 161.9 19.6L160.5 21.8C160 22.6 160.6 23.6 161.5 23.6H168C168.4 23.6 168.7 23.4 168.9 23.1L170.3 21.3C170.5 21 170.9 20.8 171.2 20.8H172.4C173.3 20.8 173.9 21.8 173.4 22.6L171.1 26.3C170.9 26.6 170.5 26.8 170.1 26.8H158.3C157.9 26.8 157.6 27 157.3 27.3L153.1 33.4C152.6 34.2 153.1 35.2 154.1 35.2H174.5C174.9 35.2 175.3 35 175.5 34.7L184.5 20.8C185 20.1 184.4 19.1 183.5 19.1ZM166.6 32C166.4 32.3 166 32.5 165.6 32.5H164L166.1 29C166.3 28.6 166.7 28.4 167.1 28.4H168.8L166.6 32Z" fill="#606060"/>
<path d="M210.1 23C208.2 26.3 202.4 34.8 202.4 34.8C202.2 35.1 201.8 35.3 201.5 35.3H194.6C193.7 35.3 193.1 34.3 193.6 33.5L200.6 22.3C201.1 21.5 200.8 20.5 199.6 20.5H198.6C198.2 20.5 197.8 20.7 197.6 21L188.9 34.6C188.7 34.9 188.3 35.1 187.9 35.1H180.9C180 35.1 179.4 34.1 179.9 33.3L189.5 18.9C189.7 18.6 190.1 18.4 190.5 18.4C190.5 18.4 205.6 18.4 209.8 18.4C213.1 18.5 210.6 22.1 210.1 23Z" fill="#606060"/>
<path d="M216.6 19L212.5 25.3C212 26.1 212.5 27.1 213.5 27.1H222.4C223.3 27.1 223.8 28 223.4 28.8L221.7 31.9C221.5 32.3 221.1 32.5 220.7 32.5C219.8 32.5 219.3 31.6 219.7 30.8L220.1 30.1C220.5 29.3 219.9 28.4 219.1 28.4H211.1C210.7 28.4 210.4 28.6 210.1 28.9L207.2 33.3C206.7 34.1 207.2 35.1 208.2 35.1H229.4C229.9 35.1 230.3 34.8 230.5 34.4L233.7 27.1C234 26.3 233.5 25.5 232.6 25.5H225.9C225.1 25.5 224.5 24.6 224.8 23.9L226 21.1C226.2 20.7 226.6 20.4 227.1 20.4H228.3L227.6 22.3C227.3 23.1 227.9 23.9 228.7 23.9H237.5C237.9 23.9 238.3 23.7 238.5 23.3L240.1 20.2C240.5 19.4 239.9 18.5 239.1 18.5H217.9C217.2 18.5 216.8 18.7 216.6 19Z" fill="#606060"/>
</g>
</g>
<defs>
<clipPath id="clip0_1_2">
<rect width="241" height="37" fill="white"/>
</clipPath>
<clipPath id="clip1_1_2">
<rect width="240.6" height="37" fill="white"/>
</clipPath>
</defs>
</svg>
