<svg viewBox="470.11850493000003 665.4842002380952 1328.4267000000002 731.8353174603176" version="1.1" xmlns:xlink="http://www.w3.org/1999/xlink" xmlns="http://www.w3.org/2000/svg" style="max-height: 500px" width="1328.4267000000002" height="731.8353174603176">
<defs>
<clipPath id="clip_0">
<path d="M0 0H5852.098V2213.07H0Z" transform="matrix(1,0,0,-1,0,2213.07)"/>
</clipPath>
</defs>
<g>
<text font-family="AvenirNextLTPro" font-size="113.6704" transform="matrix(1 0 -0 1 0 2213.07)" xml:space="preserve"><tspan x="3681.7677 3737.8072 3800.2122 3864.8907 3900.1285 3957.0775 3981.1756 4044.2628 4099.052 4134.9719 4189.7609 4252.8479 4280.4699" y="-169.7187">Sobre naranja</tspan><tspan x="898.7754 954.8149 1017.2199 1081.8983 1117.1362 1174.0851 1198.1832 1252.9724 1301.6233 1364.2557" y="-156.98763">Sobre azul</tspan></text>
<path fill="transparent" d="M219.588 351.924H1994.043V2017.5559H219.588Z" transform="matrix(1,0,0,-1,0, 2213.07)"/>
<g clip-path="url(#clip_0)">
<path fill="#002d59" d="M0 0C-17.626 20.056-44.984 30.084-82.073 30.084-123.907 30.084-160.038 18.379-190.487-5.054-220.925-28.487-240.046-57.054-247.826-90.743-255.858-125.573-249.218-154.14-227.884-176.443-206.562-198.747-174.664-209.905-132.213-209.905-99.653-209.905-62.61-201.633-21.083-185.114L-4.632-113.857C-25.772-125.892-42.451-134.244-54.658-138.887-66.877-143.553-79.677-145.869-93.082-145.869-110.411-145.869-123.645-142.024-132.795-134.312-141.956-126.611-147.021-115.066-148.002-99.653H10.37L14.762-80.635C22.543-46.935 17.615-20.068 0 0M-64.275-51.27-66.055-58.97H-143.233C-138.693-43.729-132.179-32.343-123.725-24.791-115.271-17.25-104.844-13.485-92.443-13.485-81.901-13.485-73.973-17.17-68.656-24.551-63.328-31.932-61.868-40.843-64.275-51.27" transform="matrix(1,0,0,-1,1235.1716,1004.0156)"/>
<path fill="#002d59" d="M0 0C31.042-13.223 61.48-19.817 91.291-19.817 126.817-19.817 157.608-12.264 183.665 2.863 209.722 17.991 225.283 36.541 230.36 58.514 237.558 89.716 215.335 112.396 163.677 126.565 144.636 131.665 135.898 137.552 137.438 144.237 138.579 149.177 141.762 152.839 147.021 155.223 152.269 157.619 159.582 158.806 168.982 158.806 189.802 158.806 209.79 151.173 228.922 135.886L244.529 203.47C219.647 213.338 193.316 218.278 165.559 218.278 133.49 218.278 104.798 211.821 79.46 198.929 54.133 186.038 39.017 168.993 34.123 147.819 31.476 136.365 33.609 124.82 40.534 113.195 47.436 101.569 66.089 90.823 96.481 80.954 109.202 76.813 117.713 73.196 122.002 70.093 126.292 66.99 127.912 63.203 126.885 58.742 125.527 52.855 121.261 48.121 114.108 44.539 106.954 40.956 98.98 39.165 90.207 39.165 67.333 39.165 42.599 49.193 15.983 69.261Z" transform="matrix(1,0,0,-1,1249.2781,1192.2002)"/>
<path fill="#002d59" d="M0 0C-8.842-38.299-1.7-67.185 21.448-86.67 44.573-106.156 81.057-115.899 130.878-115.899 182.353-115.899 224.587-105.825 257.592-85.655 290.596-65.496 311.36-36.941 319.893 0L376.285 244.255H260.284L204.942 4.574C200.994-12.538 194.297-25.373 184.851-33.929 175.405-42.485 163.084-46.764 147.899-46.764 133.433-46.764 123.668-42.063 118.602-32.662 113.537-23.251 113.161-9.241 117.461 9.4L173.854 244.438 56.392 244.255Z" transform="matrix(1,0,0,-1,634.6357,1105.0509)"/>
<path fill="#ed6d05" d="M0 0-100.737-.011-113.366-52.616C-115.796-84.856-73.379-82.597-73.379-82.597H-19.657Z" transform="matrix(1,0,0,-1,594.9833,1290.4434)"/>
<path fill="#ed6d05" d="M0 0-94.371-.011-107-52.616C-109.441-84.856-67.025-82.598-67.025-82.598H-19.657Z" transform="matrix(1,0,0,-1,692.0533,683.2804)"/>
<path fill="#ed6d05" d="M0 0 748.372 .091C748.372 .091 820.828 5.213 873.215-61.64 874.322-63.91 1029.454-258.333 1029.454-258.333 1029.454-258.333 1107.693-337.656 1030.686-437.355 1030.686-438.496 876.752-614.118 876.752-614.118 876.752-614.118 822.14-694.947 735.207-689.665H-116.754L-104.73-635.155C-104.73-635.155-97.987-606.976-62.918-606.999H735.207C735.207-606.999 770.87-610.718 792.044-584.661 792.044-585.791 970.381-379.571 970.381-379.571 970.381-379.571 998.252-351.244 970.381-314.988L816.572-123.508C816.572-123.508 792.957-84.297 735.207-86.111H28.521C28.521-86.111-15.71-88.473-13.165-54.864" transform="matrix(1,0,0,-1,707.4618,683.4663)"/>
<path fill="#002d59" d="M0 0 9.597 54.548H21.357L11.689 0Z" transform="matrix(1,0,0,-1,4274.846,890.6714)"/>
<path fill="#002d59" d="M0 0 9.018 51.083H21.069L12.049 0Z" transform="matrix(1,0,0,-1,1032.2151,920.864)"/>
<path fill="#002d59" d="M0 0C2.308 3.536 6.276 6.134 11.255 6.134 19.265 6.134 22.727 1.082 22.727-4.762 22.727-6.061 22.656-7.431 22.366-8.657L18.471-30.737H6.925L10.317-11.255C10.535-10.244 10.679-9.091 10.679-8.225 10.679-5.556 9.45-3.39 5.917-3.39 1.731-3.39-.938-6.999-1.66-11.255L-5.123-30.737H-16.669L-11.689-2.237C-11.328-.432-10.823 2.886-10.608 5.196H.432C.361 4.041 0 1.516-.144 0Z" transform="matrix(1,0,0,-1,1071.755,890.1272)"/>
<path fill="#002d59" d="M0 0 1.589 8.732H7.289L8.947 18.256H20.204L18.544 8.732H26.192L24.605 0H17.174L14.576-14.068C14.503-14.718 14.432-15.511 14.432-16.017 14.432-18.398 15.875-19.118 18.183-19.118 19.338-19.118 20.493-18.903 21.357-18.686L20.275-26.984C18.905-27.56 16.163-28.065 13.926-28.065 7.001-28.065 2.742-25.325 2.742-19.335 2.742-18.181 2.886-16.522 3.177-15.223L5.917 0Z" transform="matrix(1,0,0,-1,1100.1862,893.6631)"/>
<path fill="#002d59" d="M0 0C0 3.177-2.381 5.558-6.566 5.558-11.689 5.558-14.937 1.587-15.658-1.441H-.073C0-.938 0-.432 0 0M-16.451-8.513C-16.524-8.801-16.524-9.018-16.524-9.162-16.524-13.204-12.554-15.585-8.586-15.585-4.979-15.585-2.166-14.141 0-11.831L7.287-17.531C2.74-22.366-3.104-24.459-9.597-24.459-19.555-24.459-27.274-18.759-27.274-8.296-27.274 3.97-18.256 13.638-5.629 13.638 3.824 13.638 10.244 8.227 10.244-1.514 10.244-3.245 9.885-6.205 9.306-8.513Z" transform="matrix(1,0,0,-1,1155.1687,897.4872)"/>
<path fill="#002d59" d="M0 0C2.308 3.607 5.482 6.205 9.956 6.205 10.823 6.205 11.831 6.061 12.41 5.917L10.534-4.329C9.524-4.041 8.513-3.968 7.648-3.968 .938-3.968-1.372-9.235-1.878-12.195L-5.123-30.666H-16.669L-11.545-2.166C-11.184-.361-10.679 2.957-10.464 5.267H.505C.432 4.327 .071 1.37-.144 0Z" transform="matrix(1,0,0,-1,1186.7767,890.19827)"/>
<path fill="#002d59" d="M0 0C2.308 3.536 6.276 6.134 11.255 6.134 19.265 6.134 22.727 1.082 22.727-4.762 22.727-6.061 22.656-7.431 22.366-8.657L18.471-30.737H6.926L10.317-11.255C10.535-10.244 10.679-9.091 10.679-8.225 10.679-5.556 9.45-3.39 5.917-3.39 1.731-3.39-.938-6.999-1.66-11.255L-5.123-30.737H-16.669L-11.689-2.237C-11.328-.432-10.823 2.886-10.608 5.196H.432C.361 4.041 0 1.516-.144 0Z" transform="matrix(1,0,0,-1,1214.9884,890.1272)"/>
<path fill="#002d59" d="M0 0C-5.77 0-12.481-.794-12.481-5.194-12.481-8.08-10.1-8.874-7.719-8.874-3.319-8.874-.144-5.771 .65-1.731L1.011 0ZM12.339 5.267 9.885-8.73C9.453-11.182 9.165-14.141 9.165-15.729H-1.082C-1.082-14.718-.938-13.13-.794-11.905H-.938C-3.607-15.079-7.358-16.593-11.905-16.593-16.954-16.593-23.015-14.212-23.015-7.07-23.015 4.474-10.317 6.928 1.661 6.928 1.805 7.794 1.805 8.227 1.805 8.588 1.805 11.401-.288 12.627-3.824 12.627-7.07 12.627-10.605 11.257-13.275 9.235L-18.036 15.875C-13.78 19.338-7.719 21.286-2.237 21.286 6.349 21.286 12.771 17.677 12.771 9.67 12.771 8.371 12.627 6.71 12.339 5.267" transform="matrix(1,0,0,-1,1266.22,905.1354)"/>
<path fill="#002d59" d="M0 0C-1.011 1.587-3.465 3.104-6.278 3.104-12.483 3.104-16.884-2.164-16.884-8.224-16.884-12.266-14.503-15.946-9.091-15.946-5.629-15.946-3.319-14.503-1.587-12.698L3.895-20.058C.144-23.377-4.474-25.54-10.608-25.54-21.069-25.54-28.068-19.264-28.068-9.741-28.068 1.949-19.265 12.483-5.99 12.483-.579 12.483 4.618 10.679 7.287 6.928Z" transform="matrix(1,0,0,-1,1313.2684,896.3323)"/>
<path fill="#002d59" d="M0 0C-3.607 0-6.276 2.454-6.276 5.773-6.276 9.67-3.245 12.7 .579 12.7 4.115 12.7 6.71 10.175 6.71 6.928 6.71 3.174 3.897 0 0 0M-13.636-41.054-7.358-5.121H4.259L-2.164-41.054Z" transform="matrix(1,0,0,-1,1334.9869,879.80996)"/>
<path fill="#002d59" d="M0 0C-6.132 0-10.1-5.338-10.1-11.543-10.1-15.873-7.358-19.047-2.596-19.047 3.609-19.047 7.577-13.78 7.577-7.575 7.577-3.245 4.762 0 0 0M-21.428-12.771C-21.428-.865-13.059 9.453 .505 9.453 11.113 9.453 18.976 3.392 18.976-6.349 18.976-18.398 10.608-28.571-3.174-28.571-13.563-28.571-21.428-22.51-21.428-12.771" transform="matrix(1,0,0,-1,1365.3645,893.30178)"/>
<path fill="#002d59" d="M0 0C2.308 3.536 6.276 6.134 11.255 6.134 19.265 6.134 22.727 1.082 22.727-4.762 22.727-6.061 22.656-7.431 22.366-8.657L18.471-30.737H6.926L10.317-11.255C10.535-10.244 10.679-9.091 10.679-8.225 10.679-5.556 9.451-3.39 5.917-3.39 1.731-3.39-.938-6.999-1.66-11.255L-5.123-30.737H-16.669L-11.689-2.237C-11.328-.432-10.823 2.886-10.608 5.196H.432C.361 4.041 0 1.516-.144 0Z" transform="matrix(1,0,0,-1,1405.7756,890.1272)"/>
<path fill="#002d59" d="M0 0C-5.77 0-12.481-.794-12.481-5.194-12.481-8.08-10.1-8.874-7.719-8.874-3.319-8.874-.144-5.771 .65-1.731L1.011 0ZM12.339 5.267 9.885-8.73C9.453-11.182 9.165-14.141 9.165-15.729H-1.082C-1.082-14.718-.938-13.13-.794-11.905H-.938C-3.607-15.079-7.36-16.593-11.905-16.593-16.954-16.593-23.015-14.212-23.015-7.07-23.015 4.474-10.317 6.928 1.661 6.928 1.805 7.794 1.805 8.227 1.805 8.588 1.805 11.401-.288 12.627-3.824 12.627-7.07 12.627-10.605 11.257-13.275 9.235L-18.036 15.875C-13.78 19.338-7.719 21.286-2.237 21.286 6.349 21.286 12.771 17.677 12.771 9.67 12.771 8.371 12.627 6.71 12.339 5.267" transform="matrix(1,0,0,-1,1457.005,905.1354)"/>
<path fill="#002d59" d="M0 0 9.597 54.548H21.357L11.69 0Z" transform="matrix(1,0,0,-1,1475.2631,920.864)"/>
  </g>
</g>
</svg>